{
  "accessors": [
    {
      "bufferView": 2,
      "componentType": 5126,
      "count": 861,
      "max": [
        5.3157238960266113,
        18.204853057861328,
        5.3157243728637695
      ],
      "min": [
        -5.3157253265380859,
        0,
        -5.3157262802124023
      ],
      "type": "VEC3"
    },
    {
      "bufferView": 2,
      "byteOffset": 10332,
      "componentType": 5126,
      "count": 861,
      "max": [
        0.99632978439331055,
        1,
        0.99632984399795532
      ],
      "min": [
        -0.99632978439331055,
        -1,
        -0.99632978439331055
      ],
      "type": "VEC3"
    },
    {
      "bufferView": 3,
      "componentType": 5126,
      "count": 861,
      "max": [
        1,
        0.99587148427963257,
        1,
        1
      ],
      "min": [
        -1,
        -0.94701248407363892,
        -1,
        1
      ],
      "type": "VEC4"
    },
    {
      "bufferView": 1,
      "componentType": 5126,
      "count": 861,
      "max": [
        1,
        0.88299810886383057
      ],
      "min": [
        0,
        0
      ],
      "type": "VEC2"
    },
    {
      "bufferView": 0,
      "componentType": 5125,
      "count": 3768,
      "max": [
        860
      ],
      "min": [
        0
      ],
      "type": "SCALAR"
    },
    {
      "bufferView": 2,
      "byteOffset": 20664,
      "componentType": 5126,
      "count": 286,
      "max": [
        2.7939999103546143,
        22.402145385742188,
        0.24156838655471802
      ],
      "min": [
        -2.7940008640289307,
        17.016078948974609,
        -0.24156841635704041
      ],
      "type": "VEC3"
    },
    {
      "bufferView": 2,
      "byteOffset": 24096,
      "componentType": 5126,
      "count": 286,
      "max": [
        1,
        0.99270898103713989,
        0.96037387847900391
      ],
      "min": [
        -1,
        -0.99270898103713989,
        -0.96037405729293823
      ],
      "type": "VEC3"
    },
    {
      "bufferView": 3,
      "byteOffset": 13776,
      "componentType": 5126,
      "count": 286,
      "max": [
        0.8997684121131897,
        0.95422947406768799,
        0.99992632865905762,
        1
      ],
      "min": [
        -0.94745171070098877,
        -0.99904394149780273,
        -0.99990570545196533,
        1
      ],
      "type": "VEC4"
    },
    {
      "bufferView": 1,
      "byteOffset": 6888,
      "componentType": 5126,
      "count": 286,
      "max": [
        0.95340901613235474,
        0.27184620499610901
      ],
      "min": [
        0.11692601442337036,
        -1.4901161193847656e-08
      ],
      "type": "VEC2"
    },
    {
      "bufferView": 0,
      "byteOffset": 15072,
      "componentType": 5125,
      "count": 1380,
      "max": [
        285
      ],
      "min": [
        0
      ],
      "type": "SCALAR"
    }
  ],
  "asset": {
    "extras": {
      "author": "Keegan Keene (https://sketchfab.com/silver593)",
      "license": "CC-BY-NC-4.0 (http://creativecommons.org/licenses/by-nc/4.0/)",
      "source": "https://sketchfab.com/models/ae643a2313714b1d842b3c82fb63b8db",
      "title": "Lantern"
    },
    "generator": "Sketchfab-3.19.6",
    "version": "2.0"
  },
  "bufferViews": [
    {
      "buffer": 0,
      "byteLength": 20592,
      "byteOffset": 0,
      "name": "floatBufferViews",
      "target": 34963
    },
    {
      "buffer": 0,
      "byteLength": 9176,
      "byteOffset": 20592,
      "byteStride": 8,
      "name": "floatBufferViews",
      "target": 34962
    },
    {
      "buffer": 0,
      "byteLength": 27528,
      "byteOffset": 29768,
      "byteStride": 12,
      "name": "floatBufferViews",
      "target": 34962
    },
    {
      "buffer": 0,
      "byteLength": 18352,
      "byteOffset": 57296,
      "byteStride": 16,
      "name": "floatBufferViews",
      "target": 34962
    }
  ],
  "buffers": [
    {
      "byteLength": 75648,
      "uri": "scene.bin"
    }
  ],
  "images": [
    {
      "uri": "textures/Lantern_emissive.png"
    },
    {
      "uri": "textures/Lantern_metallicRoughness.png"
    },
    {
      "uri": "textures/Lantern_normal.png"
    },
    {
      "uri": "textures/Lantern_baseColor.png"
    }
  ],
  "materials": [
    {
      "doubleSided": true,
      "emissiveFactor": [
        1,
        1,
        1
      ],
      "emissiveTexture": {
        "index": 0,
        "texCoord": 0
      },
      "name": "Lantern",
      "normalTexture": {
        "index": 2,
        "scale": 1,
        "texCoord": 0
      },
      "occlusionTexture": {
        "index": 1,
        "strength": 1,
        "texCoord": 0
      },
      "pbrMetallicRoughness": {
        "baseColorFactor": [
          1,
          1,
          1,
          1
        ],
        "baseColorTexture": {
          "index": 3,
          "texCoord": 0
        },
        "metallicFactor": 1,
        "metallicRoughnessTexture": {
          "index": 1,
          "texCoord": 0
        },
        "roughnessFactor": 1
      }
    }
  ],
  "meshes": [
    {
      "name": "Lantern_low_Lantern_0",
      "primitives": [
        {
          "attributes": {
            "NORMAL": 1,
            "POSITION": 0,
            "TANGENT": 2,
            "TEXCOORD_0": 3
          },
          "indices": 4,
          "material": 0,
          "mode": 4
        }
      ]
    },
    {
      "name": "Lanter_Handle_low_Lantern_0",
      "primitives": [
        {
          "attributes": {
            "NORMAL": 6,
            "POSITION": 5,
            "TANGENT": 7,
            "TEXCOORD_0": 8
          },
          "indices": 9,
          "material": 0,
          "mode": 4
        }
      ]
    }
  ],
  "nodes": [
    {
      "children": [
        1
      ],
      "name": "RootNode (gltf orientation matrix)",
      "rotation": [
        -0.70710678118654746,
        -0,
        -0,
        0.70710678118654757
      ]
    },
    {
      "children": [
        2
      ],
      "name": "RootNode (model correction matrix)"
    },
    {
      "children": [
        3
      ],
      "matrix": [
        1,
        0,
        0,
        0,
        0,
        0,
        1,
        0,
        0,
        -1,
        0,
        0,
        0,
        0,
        0,
        1
      ],
      "name": "bb9d0625455a46b8ab71c6c8dc9a266e.fbx"
    },
    {
      "children": [
        4
      ],
      "name": "RootNode"
    },
    {
      "children": [
        5,
        7
      ],
      "matrix": [
        0.39370077848434448,
        0,
        0,
        0,
        0,
        0.39370077848434448,
        0,
        0,
        0,
        0,
        0.39370077848434448,
        0,
        0,
        0,
        0,
        1
      ],
      "name": "Lantern_low"
    },
    {
      "children": [
        6
      ],
      "name": "Lantern_low"
    },
    {
      "mesh": 0,
      "name": "Lantern_low_Lantern_0"
    },
    {
      "children": [
        8
      ],
      "name": "Lanter_Handle_low"
    },
    {
      "mesh": 1,
      "name": "Lanter_Handle_low_Lantern_0"
    }
  ],
  "samplers": [
    {
      "magFilter": 9729,
      "minFilter": 9987,
      "wrapS": 10497,
      "wrapT": 10497
    }
  ],
  "scene": 0,
  "scenes": [
    {
      "name": "OSG_Scene",
      "nodes": [
        0
      ]
    }
  ],
  "textures": [
    {
      "sampler": 0,
      "source": 0
    },
    {
      "sampler": 0,
      "source": 1
    },
    {
      "sampler": 0,
      "source": 2
    },
    {
      "sampler": 0,
      "source": 3
    }
  ]
}

