# Blender v2.91.2 OBJ File: 'the coin.blend'
# www.blender.org
mtllib coin.mtl
o Circle
v 0.000000 0.000000 -1.000000
v -0.195090 0.000000 -0.980785
v -0.382683 0.000000 -0.923880
v -0.555570 0.000000 -0.831470
v -0.707107 0.000000 -0.707107
v -0.831470 0.000000 -0.555570
v -0.923880 0.000000 -0.382683
v -0.980785 0.000000 -0.195090
v -1.000000 0.000000 -0.000000
v -0.980785 0.000000 0.195090
v -0.923880 0.000000 0.382683
v -0.831470 0.000000 0.555570
v -0.707107 0.000000 0.707107
v -0.555570 0.000000 0.831470
v -0.382683 0.000000 0.923880
v -0.195090 0.000000 0.980785
v 0.000000 0.000000 1.000000
v 0.195091 0.000000 0.980785
v 0.382684 0.000000 0.923879
v 0.555571 0.000000 0.831469
v 0.707107 0.000000 0.707106
v 0.831470 0.000000 0.555570
v 0.923880 0.000000 0.382683
v 0.980785 0.000000 0.195089
v 1.000000 0.000000 -0.000001
v 0.980785 0.000000 -0.195091
v 0.923879 0.000000 -0.382684
v 0.831469 0.000000 -0.555571
v 0.707106 0.000000 -0.707108
v 0.555569 0.000000 -0.831470
v 0.382682 0.000000 -0.923880
v 0.195089 0.000000 -0.980786
v 0.000000 0.203870 -1.000000
v -0.195090 0.203870 -0.980785
v -0.382683 0.203870 -0.923880
v -0.555570 0.203870 -0.831470
v -0.707107 0.203870 -0.707107
v -0.831470 0.203870 -0.555570
v -0.923880 0.203870 -0.382683
v -0.980785 0.203870 -0.195090
v -1.000000 0.203870 -0.000000
v -0.980785 0.203870 0.195090
v -0.923880 0.203870 0.382683
v -0.831470 0.203870 0.555570
v -0.707107 0.203870 0.707107
v -0.555570 0.203870 0.831470
v -0.382683 0.203870 0.923880
v -0.195090 0.203870 0.980785
v 0.000000 0.203870 1.000000
v 0.195091 0.203870 0.980785
v 0.382684 0.203870 0.923879
v 0.555571 0.203870 0.831469
v 0.707107 0.203870 0.707106
v 0.831470 0.203870 0.555570
v 0.923880 0.203870 0.382683
v 0.980785 0.203870 0.195089
v 1.000000 0.203870 -0.000001
v 0.980785 0.203870 -0.195091
v 0.923879 0.203870 -0.382684
v 0.831469 0.203870 -0.555571
v 0.707106 0.203870 -0.707108
v 0.555569 0.203870 -0.831470
v 0.382682 0.203870 -0.923880
v 0.195089 0.203870 -0.980786
v 0.000000 0.203870 -1.000000
v -0.195090 0.203870 -0.980785
v -0.382683 0.203870 -0.923880
v -0.555570 0.203870 -0.831470
v -0.707107 0.203870 -0.707107
v -0.831470 0.203870 -0.555570
v -0.923880 0.203870 -0.382683
v -0.980785 0.203870 -0.195090
v -1.000000 0.203870 -0.000000
v -0.980785 0.203870 0.195090
v -0.923880 0.203870 0.382683
v -0.831470 0.203870 0.555570
v -0.707107 0.203870 0.707107
v -0.555570 0.203870 0.831470
v -0.382683 0.203870 0.923880
v -0.195090 0.203870 0.980785
v 0.000000 0.203870 1.000000
v 0.195091 0.203870 0.980785
v 0.382684 0.203870 0.923879
v 0.555571 0.203870 0.831469
v 0.707107 0.203870 0.707106
v 0.831470 0.203870 0.555570
v 0.923880 0.203870 0.382683
v 0.980785 0.203870 0.195089
v 1.000000 0.203870 -0.000001
v 0.980785 0.203870 -0.195091
v 0.923879 0.203870 -0.382684
v 0.831469 0.203870 -0.555571
v 0.707106 0.203870 -0.707108
v 0.555569 0.203870 -0.831470
v 0.382682 0.203870 -0.923880
v 0.195089 0.203870 -0.980786
vt 0.000000 0.000000
vt 0.000000 0.000000
vt 0.000000 0.000000
vt 0.000000 0.000000
vt 0.000000 0.000000
vt 0.000000 0.000000
vt 0.000000 0.000000
vt 0.000000 0.000000
vt 0.000000 0.000000
vt 0.000000 0.000000
vt 0.000000 0.000000
vt 0.000000 0.000000
vt 0.000000 0.000000
vt 0.000000 0.000000
vt 0.000000 0.000000
vt 0.000000 0.000000
vt 0.000000 0.000000
vt 0.000000 0.000000
vt 0.000000 0.000000
vt 0.000000 0.000000
vt 0.000000 0.000000
vt 0.000000 0.000000
vt 0.000000 0.000000
vt 0.000000 0.000000
vt 0.000000 0.000000
vt 0.000000 0.000000
vt 0.000000 0.000000
vt 0.000000 0.000000
vt 0.000000 0.000000
vt 0.000000 0.000000
vt 0.000000 0.000000
vt 0.000000 0.000000
vt 0.000000 0.000000
vt 0.000000 0.000000
vt 0.000000 0.000000
vt 0.000000 0.000000
vt 0.000000 0.000000
vt 0.000000 0.000000
vt 0.000000 0.000000
vt 0.000000 0.000000
vt 0.000000 0.000000
vt 0.000000 0.000000
vt 0.000000 0.000000
vt 0.000000 0.000000
vt 0.000000 0.000000
vt 0.000000 0.000000
vt 0.000000 0.000000
vt 0.000000 0.000000
vt 0.000000 0.000000
vt 0.000000 0.000000
vt 0.000000 0.000000
vt 0.000000 0.000000
vt 0.000000 0.000000
vt 0.000000 0.000000
vt 0.000000 0.000000
vt 0.000000 0.000000
vt 0.000000 0.000000
vt 0.000000 0.000000
vt 0.000000 0.000000
vt 0.000000 0.000000
vt 0.000000 0.000000
vt 0.000000 0.000000
vt 0.000000 0.000000
vt 0.000000 0.000000
vt 0.000000 0.000000
vt 0.000000 0.000000
vt 0.000000 0.000000
vt 0.000000 0.000000
vt 0.000000 0.000000
vt 0.000000 0.000000
vt 0.000000 0.000000
vt 0.000000 0.000000
vt 0.000000 0.000000
vt 0.000000 0.000000
vt 0.000000 0.000000
vt 0.000000 0.000000
vt 0.000000 0.000000
vt 0.000000 0.000000
vt 0.000000 0.000000
vt 0.000000 0.000000
vt 0.000000 0.000000
vt 0.000000 0.000000
vt 0.000000 0.000000
vt 0.000000 0.000000
vt 0.000000 0.000000
vt 0.000000 0.000000
vt 0.000000 0.000000
vt 0.000000 0.000000
vt 0.000000 0.000000
vt 0.000000 0.000000
vt 0.000000 0.000000
vt 0.000000 0.000000
vt 0.000000 0.000000
vt 0.000000 0.000000
vt 0.000000 0.000000
vt 0.000000 0.000000
vn 0.0000 -1.0000 0.0000
vn 0.0000 0.0000 1.0000
vn 0.8819 0.0000 -0.4714
vn -0.4714 0.0000 0.8819
vn -0.0980 0.0000 -0.9952
vn 0.7730 0.0000 -0.6344
vn -0.2903 0.0000 0.9569
vn -0.2903 0.0000 -0.9569
vn 0.6344 0.0000 -0.7730
vn -0.0980 0.0000 0.9952
vn -0.4714 0.0000 -0.8819
vn 0.4714 0.0000 -0.8819
vn 0.0980 0.0000 0.9952
vn -0.6344 0.0000 -0.7730
vn 0.2903 0.0000 -0.9569
vn 0.2903 0.0000 0.9569
vn -0.7730 0.0000 -0.6344
vn 0.0980 0.0000 -0.9952
vn 0.4714 0.0000 0.8819
vn -0.8819 0.0000 -0.4714
vn 0.6344 0.0000 0.7730
vn -0.9569 0.0000 -0.2903
vn 0.7730 0.0000 0.6344
vn -0.9952 0.0000 -0.0980
vn 0.8819 0.0000 0.4714
vn -0.9952 0.0000 0.0980
vn 0.9569 0.0000 0.2903
vn -0.9569 0.0000 0.2903
vn 0.9952 0.0000 0.0980
vn -0.8819 0.0000 0.4714
vn 0.9952 0.0000 -0.0980
vn -0.7730 0.0000 0.6344
vn 0.9569 0.0000 -0.2903
vn -0.6344 0.0000 0.7730
vn 0.0000 1.0000 -0.0000
usemtl None
s off
f 2/1/1 1/2/1 32/3/1 31/4/1 30/5/1 29/6/1 28/7/1 27/8/1 26/9/1 25/10/1 24/11/1 23/12/1 22/13/1 21/14/1 20/15/1 19/16/1 18/17/1 17/18/1 16/19/1 15/20/1 14/21/1 13/22/1 12/23/1 11/24/1 10/25/1 9/26/1 8/27/1 7/28/1 6/29/1 5/30/1 4/31/1 3/32/1
f 54/33/2 55/34/2 87/35/2 86/36/2
f 27/8/3 28/7/3 60/37/3 59/38/3
f 14/21/4 15/20/4 47/39/4 46/40/4
f 1/2/5 2/1/5 34/41/5 33/42/5
f 28/7/6 29/6/6 61/43/6 60/37/6
f 15/20/7 16/19/7 48/44/7 47/39/7
f 2/1/8 3/32/8 35/45/8 34/41/8
f 29/6/9 30/5/9 62/46/9 61/43/9
f 16/19/10 17/18/10 49/47/10 48/44/10
f 3/32/11 4/31/11 36/48/11 35/45/11
f 30/5/12 31/4/12 63/49/12 62/46/12
f 17/18/13 18/17/13 50/50/13 49/47/13
f 4/31/14 5/30/14 37/51/14 36/48/14
f 31/4/15 32/3/15 64/52/15 63/49/15
f 18/17/16 19/16/16 51/53/16 50/50/16
f 5/30/17 6/29/17 38/54/17 37/51/17
f 32/3/18 1/2/18 33/42/18 64/52/18
f 19/16/19 20/15/19 52/55/19 51/53/19
f 6/29/20 7/28/20 39/56/20 38/54/20
f 20/15/21 21/14/21 53/57/21 52/55/21
f 7/28/22 8/27/22 40/58/22 39/56/22
f 21/14/23 22/13/23 54/33/23 53/57/23
f 8/27/24 9/26/24 41/59/24 40/58/24
f 22/13/25 23/12/25 55/34/25 54/33/25
f 9/26/26 10/25/26 42/60/26 41/59/26
f 23/12/27 24/11/27 56/61/27 55/34/27
f 10/25/28 11/24/28 43/62/28 42/60/28
f 24/11/29 25/10/29 57/63/29 56/61/29
f 11/24/30 12/23/30 44/64/30 43/62/30
f 25/10/31 26/9/31 58/65/31 57/63/31
f 12/23/32 13/22/32 45/66/32 44/64/32
f 26/9/33 27/8/33 59/38/33 58/65/33
f 13/22/34 14/21/34 46/40/34 45/66/34
f 66/67/35 67/68/35 68/69/35 69/70/35 70/71/35 71/72/35 72/73/35 73/74/35 74/75/35 75/76/35 76/77/35 77/78/35 78/79/35 79/80/35 80/81/35 81/82/35 82/83/35 83/84/35 84/85/35 85/86/35 86/36/35 87/35/35 88/87/35 89/88/35 90/89/35 91/90/35 92/91/35 93/92/35 94/93/35 95/94/35 96/95/35 65/96/35
f 41/59/2 42/60/2 74/75/2 73/74/2
f 55/34/2 56/61/2 88/87/2 87/35/2
f 42/60/2 43/62/2 75/76/2 74/75/2
f 56/61/2 57/63/2 89/88/2 88/87/2
f 43/62/2 44/64/2 76/77/2 75/76/2
f 57/63/2 58/65/2 90/89/2 89/88/2
f 44/64/2 45/66/2 77/78/2 76/77/2
f 58/65/2 59/38/2 91/90/2 90/89/2
f 45/66/2 46/40/2 78/79/2 77/78/2
f 59/38/2 60/37/2 92/91/2 91/90/2
f 46/40/2 47/39/2 79/80/2 78/79/2
f 33/42/2 34/41/2 66/67/2 65/96/2
f 60/37/2 61/43/2 93/92/2 92/91/2
f 47/39/2 48/44/2 80/81/2 79/80/2
f 34/41/2 35/45/2 67/68/2 66/67/2
f 61/43/2 62/46/2 94/93/2 93/92/2
f 48/44/2 49/47/2 81/82/2 80/81/2
f 35/45/2 36/48/2 68/69/2 67/68/2
f 62/46/2 63/49/2 95/94/2 94/93/2
f 49/47/2 50/50/2 82/83/2 81/82/2
f 36/48/2 37/51/2 69/70/2 68/69/2
f 63/49/2 64/52/2 96/95/2 95/94/2
f 50/50/2 51/53/2 83/84/2 82/83/2
f 37/51/2 38/54/2 70/71/2 69/70/2
f 64/52/2 33/42/2 65/96/2 96/95/2
f 51/53/2 52/55/2 84/85/2 83/84/2
f 38/54/2 39/56/2 71/72/2 70/71/2
f 52/55/2 53/57/2 85/86/2 84/85/2
f 39/56/2 40/58/2 72/73/2 71/72/2
f 53/57/2 54/33/2 86/36/2 85/86/2
f 40/58/2 41/59/2 73/74/2 72/73/2
o Cube_Cube.001
v -0.337391 0.194367 -0.332123
v -0.337391 0.334342 -0.332123
v -0.387514 0.194367 -0.252896
v -0.387514 0.334342 -0.252896
v 0.278919 0.194367 0.057791
v 0.278919 0.334342 0.057791
v 0.228796 0.194367 0.137018
v 0.228796 0.334342 0.137018
vt 0.375000 0.000000
vt 0.375000 0.250000
vt 0.625000 0.250000
vt 0.625000 0.000000
vt 0.375000 0.500000
vt 0.625000 0.500000
vt 0.375000 0.750000
vt 0.625000 0.750000
vt 0.375000 1.000000
vt 0.625000 1.000000
vt 0.125000 0.500000
vt 0.125000 0.750000
vt 0.875000 0.750000
vt 0.875000 0.500000
vn -0.8451 0.0000 -0.5346
vn -0.5346 0.0000 0.8451
vn 0.8451 0.0000 0.5346
vn 0.5346 0.0000 -0.8451
vn 0.0000 -1.0000 0.0000
vn 0.0000 1.0000 0.0000
usemtl None
s off
f 97/97/36 99/98/36 100/99/36 98/100/36
f 99/98/37 103/101/37 104/102/37 100/99/37
f 103/101/38 101/103/38 102/104/38 104/102/38
f 101/103/39 97/105/39 98/106/39 102/104/39
f 99/107/40 97/108/40 101/103/40 103/101/40
f 104/102/41 102/104/41 98/109/41 100/110/41
o Cube.001_Cube.002
v 0.293467 0.199847 0.116552
v 0.293467 0.339822 0.116552
v 0.261235 0.199847 0.028516
v 0.261235 0.339822 0.028516
v -0.391370 0.199847 0.367290
v -0.391370 0.339822 0.367290
v -0.423602 0.199847 0.279254
v -0.423602 0.339822 0.279254
vt 0.375000 0.000000
vt 0.375000 0.250000
vt 0.625000 0.250000
vt 0.625000 0.000000
vt 0.375000 0.500000
vt 0.625000 0.500000
vt 0.375000 0.750000
vt 0.625000 0.750000
vt 0.375000 1.000000
vt 0.625000 1.000000
vt 0.125000 0.500000
vt 0.125000 0.750000
vt 0.875000 0.750000
vt 0.875000 0.500000
vn 0.9390 0.0000 -0.3438
vn -0.3438 0.0000 -0.9390
vn -0.9390 0.0000 0.3438
vn 0.3438 0.0000 0.9390
vn 0.0000 -1.0000 -0.0000
vn 0.0000 1.0000 0.0000
usemtl None
s off
f 105/111/42 107/112/42 108/113/42 106/114/42
f 107/112/43 111/115/43 112/116/43 108/113/43
f 111/115/44 109/117/44 110/118/44 112/116/44
f 109/117/45 105/119/45 106/120/45 110/118/45
f 107/121/46 105/122/46 109/117/46 111/115/46
f 112/116/47 110/118/47 106/123/47 108/124/47
o Cube.002_Cube.003
v -0.119295 0.193903 0.198861
v -0.119295 0.333877 0.198861
v -0.025585 0.193903 0.196057
v -0.025585 0.333877 0.196057
v -0.141106 0.193903 -0.122543
v -0.141106 0.333877 -0.122543
v -0.047396 0.193903 -0.125346
v -0.047396 0.333877 -0.125346
vt 0.375000 0.000000
vt 0.375000 0.250000
vt 0.625000 0.250000
vt 0.625000 0.000000
vt 0.375000 0.500000
vt 0.625000 0.500000
vt 0.375000 0.750000
vt 0.625000 0.750000
vt 0.375000 1.000000
vt 0.625000 1.000000
vt 0.125000 0.500000
vt 0.125000 0.750000
vt 0.875000 0.750000
vt 0.875000 0.500000
vn 0.0299 0.0000 0.9996
vn 0.9977 0.0000 -0.0677
vn -0.0299 0.0000 -0.9996
vn -0.9977 0.0000 0.0677
vn 0.0000 -1.0000 0.0000
vn 0.0000 1.0000 -0.0000
usemtl None
s off
f 113/125/48 115/126/48 116/127/48 114/128/48
f 115/126/49 119/129/49 120/130/49 116/127/49
f 119/129/50 117/131/50 118/132/50 120/130/50
f 117/131/51 113/133/51 114/134/51 118/132/51
f 115/135/52 113/136/52 117/131/52 119/129/52
f 120/130/53 118/132/53 114/137/53 116/138/53
o Cube.003_Cube.004
v 0.391123 0.193903 0.153095
v 0.391123 0.333877 0.153095
v 0.361691 0.193903 0.242107
v 0.361691 0.333877 0.242107
v 0.700587 0.193903 0.242582
v 0.700587 0.333877 0.242582
v 0.671155 0.193903 0.331594
v 0.671155 0.333877 0.331594
vt 0.375000 0.000000
vt 0.375000 0.250000
vt 0.625000 0.250000
vt 0.625000 0.000000
vt 0.375000 0.500000
vt 0.625000 0.500000
vt 0.375000 0.750000
vt 0.625000 0.750000
vt 0.375000 1.000000
vt 0.625000 1.000000
vt 0.125000 0.500000
vt 0.125000 0.750000
vt 0.875000 0.750000
vt 0.875000 0.500000
vn -0.9494 0.0000 -0.3139
vn -0.2778 0.0000 0.9606
vn 0.9494 0.0000 0.3139
vn 0.2778 0.0000 -0.9606
vn 0.0000 -1.0000 0.0000
vn 0.0000 1.0000 0.0000
usemtl None
s off
f 121/139/54 123/140/54 124/141/54 122/142/54
f 123/140/55 127/143/55 128/144/55 124/141/55
f 127/143/56 125/145/56 126/146/56 128/144/56
f 125/145/57 121/147/57 122/148/57 126/146/57
f 123/149/58 121/150/58 125/145/58 127/143/58
f 128/144/59 126/146/59 122/151/59 124/152/59
o Cube.004_Cube.005
v 0.366422 0.193903 -0.097002
v 0.366422 0.333877 -0.097002
v 0.336990 0.193903 -0.007990
v 0.336990 0.333877 -0.007990
v 0.675886 0.193903 -0.007515
v 0.675886 0.333877 -0.007515
v 0.646454 0.193903 0.081496
v 0.646454 0.333877 0.081496
vt 0.375000 0.000000
vt 0.375000 0.250000
vt 0.625000 0.250000
vt 0.625000 0.000000
vt 0.375000 0.500000
vt 0.625000 0.500000
vt 0.375000 0.750000
vt 0.625000 0.750000
vt 0.375000 1.000000
vt 0.625000 1.000000
vt 0.125000 0.500000
vt 0.125000 0.750000
vt 0.875000 0.750000
vt 0.875000 0.500000
vn -0.9494 0.0000 -0.3139
vn -0.2778 0.0000 0.9606
vn 0.9494 0.0000 0.3139
vn 0.2778 0.0000 -0.9606
vn 0.0000 -1.0000 0.0000
vn 0.0000 1.0000 -0.0000
usemtl None
s off
f 129/153/60 131/154/60 132/155/60 130/156/60
f 131/154/61 135/157/61 136/158/61 132/155/61
f 135/157/62 133/159/62 134/160/62 136/158/62
f 133/159/63 129/161/63 130/162/63 134/160/63
f 131/163/64 129/164/64 133/159/64 135/157/64
f 136/158/65 134/160/65 130/165/65 132/166/65
